<svg width="20" height="20" viewBox="0 0 20 20" fill="none" xmlns="http://www.w3.org/2000/svg">
<g clip-path="url(#clip0_28_1216)">
<path d="M16.6667 1.66663H3.33335C2.41669 1.66663 1.67502 2.41663 1.67502 3.33329L1.66669 18.3333L5.00002 15H16.6667C17.5834 15 18.3334 14.25 18.3334 13.3333V3.33329C18.3334 2.41663 17.5834 1.66663 16.6667 1.66663ZM5.83335 7.49996H14.1667C14.625 7.49996 15 7.87496 15 8.33329C15 8.79163 14.625 9.16663 14.1667 9.16663H5.83335C5.37502 9.16663 5.00002 8.79163 5.00002 8.33329C5.00002 7.87496 5.37502 7.49996 5.83335 7.49996ZM10.8334 11.6666H5.83335C5.37502 11.6666 5.00002 11.2916 5.00002 10.8333C5.00002 10.375 5.37502 9.99996 5.83335 9.99996H10.8334C11.2917 9.99996 11.6667 10.375 11.6667 10.8333C11.6667 11.2916 11.2917 11.6666 10.8334 11.6666ZM14.1667 6.66663H5.83335C5.37502 6.66663 5.00002 6.29163 5.00002 5.83329C5.00002 5.37496 5.37502 4.99996 5.83335 4.99996H14.1667C14.625 4.99996 15 5.37496 15 5.83329C15 6.29163 14.625 6.66663 14.1667 6.66663Z" fill="#5B5D6D"/>
</g>
<defs>
<clipPath id="clip0_28_1216">
<rect width="20" height="20" fill="white"/>
</clipPath>
</defs>
</svg>
