<svg width="20" height="20" viewBox="0 0 20 20" fill="none" xmlns="http://www.w3.org/2000/svg">
<g clip-path="url(#clip0_28_1226)">
<path d="M13.3333 9.16663C14.7167 9.16663 15.825 8.04996 15.825 6.66663C15.825 5.28329 14.7167 4.16663 13.3333 4.16663C11.95 4.16663 10.8333 5.28329 10.8333 6.66663C10.8333 8.04996 11.95 9.16663 13.3333 9.16663ZM6.66668 9.16663C8.05001 9.16663 9.15834 8.04996 9.15834 6.66663C9.15834 5.28329 8.05001 4.16663 6.66668 4.16663C5.28334 4.16663 4.16668 5.28329 4.16668 6.66663C4.16668 8.04996 5.28334 9.16663 6.66668 9.16663ZM6.66668 10.8333C4.72501 10.8333 0.833344 11.8083 0.833344 13.75V15C0.833344 15.4583 1.20834 15.8333 1.66668 15.8333H11.6667C12.125 15.8333 12.5 15.4583 12.5 15V13.75C12.5 11.8083 8.60834 10.8333 6.66668 10.8333ZM13.3333 10.8333C13.0917 10.8333 12.8167 10.85 12.525 10.875C12.5417 10.8833 12.55 10.9 12.5583 10.9083C13.5083 11.6 14.1667 12.525 14.1667 13.75V15C14.1667 15.2916 14.1083 15.575 14.0167 15.8333H18.3333C18.7917 15.8333 19.1667 15.4583 19.1667 15V13.75C19.1667 11.8083 15.275 10.8333 13.3333 10.8333Z" fill="#5B5D6D"/>
</g>
<defs>
<clipPath id="clip0_28_1226">
<rect width="20" height="20" fill="white"/>
</clipPath>
</defs>
</svg>
