<svg width="20" height="20" viewBox="0 0 20 20" fill="none" xmlns="http://www.w3.org/2000/svg">
<g clip-path="url(#clip0_28_1228)">
<path d="M10 18.3334C10.9167 18.3334 11.6667 17.5834 11.6667 16.6667H8.33335C8.33335 17.5834 9.07501 18.3334 10 18.3334ZM15 13.3334V9.16671C15 6.60837 13.6333 4.46671 11.25 3.90004V3.33337C11.25 2.64171 10.6917 2.08337 10 2.08337C9.30835 2.08337 8.75001 2.64171 8.75001 3.33337V3.90004C6.35835 4.46671 5.00001 6.60004 5.00001 9.16671V13.3334L3.92501 14.4084C3.40001 14.9334 3.76668 15.8334 4.50835 15.8334H15.4833C16.225 15.8334 16.6 14.9334 16.075 14.4084L15 13.3334Z" fill="#5B5D6D"/>
</g>
<defs>
<clipPath id="clip0_28_1228">
<rect width="20" height="20" fill="white"/>
</clipPath>
</defs>
</svg>
