<svg width="20" height="20" viewBox="0 0 20 20" fill="none" xmlns="http://www.w3.org/2000/svg">
<g clip-path="url(#clip0_28_1227)">
<path d="M15.8333 2.50004H12.35C12 1.53337 11.0833 0.833374 10 0.833374C8.91667 0.833374 8 1.53337 7.65 2.50004H4.16667C3.25 2.50004 2.5 3.25004 2.5 4.16671V15.8334C2.5 16.75 3.25 17.5 4.16667 17.5H15.8333C16.75 17.5 17.5 16.75 17.5 15.8334V4.16671C17.5 3.25004 16.75 2.50004 15.8333 2.50004ZM10 2.50004C10.4583 2.50004 10.8333 2.87504 10.8333 3.33337C10.8333 3.79171 10.4583 4.16671 10 4.16671C9.54167 4.16671 9.16667 3.79171 9.16667 3.33337C9.16667 2.87504 9.54167 2.50004 10 2.50004ZM7.74167 13.575L5.58333 11.4167C5.25833 11.0917 5.25833 10.5667 5.58333 10.2417C5.90833 9.91671 6.43333 9.91671 6.75833 10.2417L8.33333 11.8084L13.2333 6.90837C13.5583 6.58337 14.0833 6.58337 14.4083 6.90837C14.7333 7.23337 14.7333 7.75837 14.4083 8.08337L8.91667 13.575C8.6 13.9 8.06667 13.9 7.74167 13.575Z" fill="#5B5D6D"/>
</g>
<defs>
<clipPath id="clip0_28_1227">
<rect width="20" height="20" fill="white"/>
</clipPath>
</defs>
</svg>
